<?xml version="1.0" encoding="utf-8"?>
<!-- Generator: Adobe Illustrator 25.2.0, SVG Export Plug-In . SVG Version: 6.00 Build 0)  -->
<svg version="1.1" id="Слой_1" xmlns="http://www.w3.org/2000/svg" xmlns:xlink="http://www.w3.org/1999/xlink" x="0px" y="0px"
	 viewBox="0 0 1920 1080" style="enable-background:new 0 0 1920 1080;" xml:space="preserve">
<style type="text/css">
	.st0{fill:url(#SVGID_1_);stroke:#11D000;stroke-miterlimit:10;}
	.st1{fill:url(#SVGID_2_);stroke:#11D000;stroke-miterlimit:10;}
	.st2{fill:url(#SVGID_3_);stroke:#11D000;stroke-miterlimit:10;}
</style>
<g>
	
		<linearGradient id="SVGID_1_" gradientUnits="userSpaceOnUse" x1="601.096" y1="657.0331" x2="1318.9041" y2="657.0331" gradientTransform="matrix(1 0 0 -1 0 1080)">
		<stop  offset="0" style="stop-color:#2000E7"/>
		<stop  offset="0.5" style="stop-color:#FFFFFF"/>
	</linearGradient>
	<path class="st0" d="M1301.781,462.047H618.219c-9.457,0-17.123-17.496-17.123-39.08l0,0c0-21.584,7.666-39.08,17.123-39.08
		h683.562c9.457,0,17.123,17.496,17.123,39.08l0,0C1318.904,444.551,1311.238,462.047,1301.781,462.047z"/>
	
		<linearGradient id="SVGID_2_" gradientUnits="userSpaceOnUse" x1="601.096" y1="487.8131" x2="1318.9041" y2="487.8131" gradientTransform="matrix(1 0 0 -1 0 1080)">
		<stop  offset="0" style="stop-color:#2000E7"/>
		<stop  offset="0.5" style="stop-color:#FFFFFF"/>
	</linearGradient>
	<path class="st1" d="M1301.781,631.267H618.219c-9.457,0-17.123-17.496-17.123-39.08l0,0c0-21.584,7.666-39.08,17.123-39.08
		h683.562c9.457,0,17.123,17.496,17.123,39.08l0,0C1318.904,613.771,1311.238,631.267,1301.781,631.267z"/>
	
		<linearGradient id="SVGID_3_" gradientUnits="userSpaceOnUse" x1="601.096" y1="318.5929" x2="1318.9041" y2="318.5929" gradientTransform="matrix(1 0 0 -1 0 1080)">
		<stop  offset="0" style="stop-color:#2000E7"/>
		<stop  offset="0.5" style="stop-color:#FFFFFF"/>
	</linearGradient>
	<path class="st2" d="M1301.781,800.487H618.219c-9.457,0-17.123-17.496-17.123-39.08l0,0c0-21.584,7.666-39.08,17.123-39.08
		h683.562c9.457,0,17.123,17.496,17.123,39.08l0,0C1318.904,782.991,1311.238,800.487,1301.781,800.487z"/>
</g>
</svg>
