<?xml version="1.0" encoding="utf-8"?>
<!-- Generator: Adobe Illustrator 25.2.0, SVG Export Plug-In . SVG Version: 6.00 Build 0)  -->
<svg version="1.1" id="Слой_1" xmlns="http://www.w3.org/2000/svg" xmlns:xlink="http://www.w3.org/1999/xlink" x="0px" y="0px"
	 viewBox="0 0 1000 1000" style="enable-background:new 0 0 1000 1000;" xml:space="preserve">
<style type="text/css">
	.st0{opacity:0.65;fill:#020000;enable-background:new    ;}
	.st1{fill:url(#SVGID_1_);}
	.st2{fill:url(#SVGID_2_);}
	.st3{fill:url(#SVGID_3_);}
	.st4{fill:url(#SVGID_4_);}
	.st5{fill:url(#SVGID_5_);}
	.st6{fill:url(#SVGID_6_);}
	.st7{fill:url(#SVGID_7_);}
	.st8{fill:url(#SVGID_8_);}
	.st9{fill:url(#SVGID_9_);}
	.st10{fill:url(#SVGID_10_);}
</style>
<circle class="st0" cx="531.222" cy="506.63" r="304.889"/>
<g>
	
		<linearGradient id="SVGID_1_" gradientUnits="userSpaceOnUse" x1="485.8895" y1="243.867" x2="485.8895" y2="724.35" gradientTransform="matrix(1 0 0 -1 0 1000)">
		<stop  offset="0.1101" style="stop-color:#0A0200"/>
		<stop  offset="1" style="stop-color:#444444"/>
	</linearGradient>
	<path class="st1" d="M729.741,275.815c-75.259-3.556-60.444,51.556-60.444,51.556s11.852,30.815-2.37,81.185s-32,69.926-32,69.926
		s-24.889,30.815-56.889,29.63s-21.333-4.148-37.926-8.111s-21.333-1.37-40.111,0s-31,0-31,0s-10.667,2.778-27.852,5.148
		s-31.407,19.556-31.407,19.556s-9.482-12.444-9.482-27.852c0-15.407,4.741-27.259,4.741-27.259s-6.519-24.889-7.704-34.37
		s-10.667-13.037-10.667-13.037h-11.852c0,0-15.407-8.296-18.37-10.074s-19.556-13.037-19.556-13.037s-5.926-8.889-13.63-10.074
		s-20.148,4.148-20.148,4.148s-5.037,3.259,0,15.111c0,0,22.519,37.037,22.519,42.963c0,0,15.407,21.037,9.185,31.407L328.852,500
		c0,0-18.7-3.148-28.016,1.593c0,0-7.835,0.296-3.391,2.963h21.037c0,0,0,10.074-11.259,13.333c-5.63,1.63-13.704,3.037-20.37,4.037
		c-6.667,1-11.926,1.593-11.926,1.593s0.296,9.778,15.704,13.333s54.815-7.407,54.815-7.407s18.667-9.185,24.889,10.667
		c0,0,7.111,11.852,21.037,12.148l-9.185,26.667h-16.889c0,0-7.111-7.407-22.222-4.444c-15.111,2.963-32-0.593-32-0.593
		s-13.037-2.37-18.667-13.333c0,0-5.037-6.815-18.963-3.852c0,0-3.556-2.963-7.704-0.593l-16.889,6.222l16.296-0.593
		c0,0-6.222,1.778-9.481,6.815l-0.889,3.556c0,0-8.889,1.482-12.741,14.222c0,0,9.778-11.852,13.63-8.593
		c0,0,4.444,0.296,7.111-3.259L274.333,565l3.852,9.778l-15.407-0.296c0,0-5.63,6.222-6.519,12.444c0,0-6.519,2.667-7.704,11.852
		c0,0-0.593,3.259,1.778,6.815c0,0,0.296-11.259,5.926-13.333c0,0,5.63,1.481,8.296-1.778c0,0,0.593-9.185,6.519-10.074
		c0,0,5.926-1.185,7.407,3.556c0,0,9.481,5.333,22.519,5.037c0,0,15.111,7.407,18.37,0.889c0,0,10.37,14.222,27.852,13.926
		c0,0,8.593,6.815,32.593,5.63c0,0,33.778,5.333,34.074-23.407l7.407-19.259c0,0,3.259,5.926,18.074,4.148
		c0,0,12.444,12.444,26.667,18.37c0,0-4.148,12.444,4.148,17.185c0,0,36.741,21.926,38.519,29.037c0,0,8.889,19.556-17.185,43.852
		l-26.074,28.444c0,0-6.222-9.778-18.37-7.407c0,0-7.111-0.889-19.556,7.407c0,0-6.815,8-0.593,3.852
		c6.222-4.148,16.593-5.333,16.593-5.333s11.259-1.762,12.741,6.526c0,0-10.667,13.325-27.852,14.511c0,0-3.556,3.259-23.704,6.519
		c0,0-1.185-2.667-8-2.37c0,0-5.63-1.185-11.556,7.111c0,0,11.852-2.963,12.444,1.185c0,0,7.704,2.074-0.889,5.63
		c0,0-5.926,0.889-7.704,7.704c0,0,8.593-6.815,10.667,0c0,0,2.667,3.259,8.593,2.963c0,0,9.778-8.593,34.963-6.815
		s14.815,7.111,39.704,2.963c0,0,22.519-24.296,34.963-63.111c0,0,8.296-11.259,6.815,14.815c0,0,2.963,3.852,8-20.741
		c0,0,16.593-45.926,3.259-53.037c0,0-26.963-23.407-20.741-33.482l52.444-13.037c0,0,16.444-4.444,19.111,0
		c2.667,4.444,4.444,36.444,4.444,36.444s1.778,9.333,10.667,14.222s16,30.222,16,30.222s-8.444,9.333-6.667,16
		c1.778,6.667,8,12,0.444,23.111c0,0-3.556,6.667-10.222,7.556c0,0-5.333,0-8.889,13.778l8-7.556c0,0,2.222,3.556,8,1.778
		l7.111,3.111L613,738.778c0,0-1.778,4.444,4.444,6.222L621,756.13l6.667-10.241c0,0,7.111,0.444,8.444-5.778
		c1.333-6.222-2.667-19.556-2.667-19.556s1.778-12,9.333-4l5.333,14.222c0,0,0.889,7.111,8.444,5.778l7.556,9.333l2.667-10.667
		c0,0,8-3.111,3.556-8.444c0,0-24.889-55.556-28.889-92.444c0,0,4.444-32.444,0.889-40c0,0,3.556-18.667-14.667-28.889
		l30.963-28.296c0,0,32.753-41.069,32.593-55.704c-0.889-81.333,10.667-122.667,10.667-122.667s-5.331-13.436-5.63-28.741
		c-0.071-3.664-4.102-13.315-2.815-16.148c0.889-1.956-3.907-13.661,3.111-20.889C706.773,282.477,729.741,275.815,729.741,275.815z
		"/>
	
		<linearGradient id="SVGID_2_" gradientUnits="userSpaceOnUse" x1="378.248" y1="437.963" x2="378.248" y2="450.649" gradientTransform="matrix(1 0 0 -1 0 1000)">
		<stop  offset="0.1101" style="stop-color:#0A0200"/>
		<stop  offset="1" style="stop-color:#444444"/>
	</linearGradient>
	<path class="st2" d="M380.398,549.351c0,0-8.286,7.056-9.62,12.686c0,0,10.354-11.326,14.94-10.576"/>
	
		<linearGradient id="SVGID_3_" gradientUnits="userSpaceOnUse" x1="381.319" y1="421.6671" x2="381.319" y2="441.848" gradientTransform="matrix(1 0 0 -1 0 1000)">
		<stop  offset="0.1101" style="stop-color:#0A0200"/>
		<stop  offset="1" style="stop-color:#444444"/>
	</linearGradient>
	<path class="st3" d="M389.341,558.152c0,0-5.674,0.293-7.118,4.626c0,0-0.389,1.278,0,2.444c0,0-7.37,6.074-8.926,13.111
		c0,0,8.148-12.074,10.815-11.556c0,0,2.416-0.458,1.754,1.465"/>
	
		<linearGradient id="SVGID_4_" gradientUnits="userSpaceOnUse" x1="303.2105" y1="589.074" x2="303.2105" y2="590.893" gradientTransform="matrix(1 0 0 -1 0 1000)">
		<stop  offset="0.1101" style="stop-color:#0A0200"/>
		<stop  offset="1" style="stop-color:#444444"/>
	</linearGradient>
	<polyline class="st4" points="303.587,409.107 301.741,410.926 304.68,410.926 	"/>
	
		<linearGradient id="SVGID_5_" gradientUnits="userSpaceOnUse" x1="308.5625" y1="573.222" x2="308.5625" y2="587.098" gradientTransform="matrix(1 0 0 -1 0 1000)">
		<stop  offset="0.1101" style="stop-color:#0A0200"/>
		<stop  offset="1" style="stop-color:#444444"/>
	</linearGradient>
	<polygon class="st5" points="308.635,417.608 307.074,418.63 309.582,419.229 312.602,424.466 309.838,426.778 313.915,426.778 
		305.859,412.902 303.21,415.222 	"/>
	
		<linearGradient id="SVGID_6_" gradientUnits="userSpaceOnUse" x1="316.3695" y1="558.814" x2="316.3695" y2="570.799" gradientTransform="matrix(1 0 0 -1 0 1000)">
		<stop  offset="0.1101" style="stop-color:#0A0200"/>
		<stop  offset="1" style="stop-color:#444444"/>
	</linearGradient>
	<polyline class="st6" points="315.276,429.201 311.074,430.63 316.685,431.744 318.401,434.901 313.915,436.704 319.362,436.704 
		320.647,439.171 318.778,439.171 321.665,441.186 	"/>
	
		<linearGradient id="SVGID_7_" gradientUnits="userSpaceOnUse" x1="308.809" y1="577.444" x2="308.809" y2="579.002" gradientTransform="matrix(1 0 0 -1 0 1000)">
		<stop  offset="0.1101" style="stop-color:#0A0200"/>
		<stop  offset="1" style="stop-color:#444444"/>
	</linearGradient>
	<polyline class="st7" points="310.559,420.998 306.111,422.556 311.507,422.556 	"/>
	
		<linearGradient id="SVGID_8_" gradientUnits="userSpaceOnUse" x1="282.59" y1="477.204" x2="282.59" y2="485.37" gradientTransform="matrix(1 0 0 -1 0 1000)">
		<stop  offset="0.1101" style="stop-color:#0A0200"/>
		<stop  offset="1" style="stop-color:#444444"/>
	</linearGradient>
	<polyline class="st8" points="280.696,522.796 282.037,514.63 284.484,522.273 	"/>
	
		<linearGradient id="SVGID_9_" gradientUnits="userSpaceOnUse" x1="287.2595" y1="478.074" x2="287.2595" y2="482.704" gradientTransform="matrix(1 0 0 -1 0 1000)">
		<stop  offset="0.1101" style="stop-color:#0A0200"/>
		<stop  offset="1" style="stop-color:#444444"/>
	</linearGradient>
	<path class="st9" d="M287.667,517.296l-0.815,4.63L287.667,517.296z"/>
	
		<linearGradient id="SVGID_10_" gradientUnits="userSpaceOnUse" x1="292.972" y1="478.848" x2="292.972" y2="484.11" gradientTransform="matrix(1 0 0 -1 0 1000)">
		<stop  offset="0.1101" style="stop-color:#0A0200"/>
		<stop  offset="1" style="stop-color:#444444"/>
	</linearGradient>
	<polyline class="st10" points="287.667,517.296 291.523,521.152 295.704,520.463 293,515.89 298.277,519.975 	"/>
</g>
</svg>
