<?xml version="1.0" encoding="utf-8"?>
<!-- Generator: Adobe Illustrator 25.2.0, SVG Export Plug-In . SVG Version: 6.00 Build 0)  -->
<svg version="1.1" id="Слой_1" xmlns="http://www.w3.org/2000/svg" xmlns:xlink="http://www.w3.org/1999/xlink" x="0px" y="0px"
	 viewBox="0 0 1000 1000" style="enable-background:new 0 0 1000 1000;" xml:space="preserve">
<style type="text/css">
	.st0{fill:url(#SVGID_1_);}
	.st1{fill:url(#SVGID_2_);}
	.st2{fill:url(#SVGID_3_);}
	.st3{fill:url(#SVGID_4_);}
	.st4{fill:url(#SVGID_5_);}
	.st5{fill:url(#SVGID_6_);}
	.st6{fill:url(#SVGID_7_);}
	.st7{fill:url(#SVGID_8_);}
	.st8{fill:url(#SVGID_9_);}
	.st9{fill:url(#SVGID_10_);}
	.st10{opacity:0.1;fill:#ED1C24;stroke:#FF16C9;stroke-width:8;stroke-miterlimit:10;enable-background:new    ;}
</style>
<g>
	<linearGradient id="SVGID_1_" gradientUnits="userSpaceOnUse" x1="426.4525" y1="895.9335" x2="426.4525" y2="133.4633">
		<stop  offset="0.0398" style="stop-color:#D4145A"/>
		<stop  offset="0.1277" style="stop-color:#CB175D"/>
		<stop  offset="0.2741" style="stop-color:#B12064"/>
		<stop  offset="0.4608" style="stop-color:#882E70"/>
		<stop  offset="0.6805" style="stop-color:#4E4181"/>
		<stop  offset="0.9256" style="stop-color:#055995"/>
		<stop  offset="0.9425" style="stop-color:#005B97"/>
	</linearGradient>
	<path class="st0" d="M822.076,133.725c-122.1-5.643-98.064,81.813-98.064,81.813s19.229,48.9-3.845,128.831
		c-23.074,79.931-51.918,110.964-51.918,110.964s-40.38,48.9-92.296,47.02c-51.917-1.88-34.61-6.582-61.531-12.871
		c-26.92-6.289-34.61-2.174-65.076,0c-30.466,2.174-50.294,0-50.294,0s-17.306,4.409-45.187,8.169s-50.954,31.033-50.954,31.033
		s-15.383-19.748-15.383-44.198c0-24.449,7.692-43.257,7.692-43.257s-10.576-39.496-12.499-54.541
		C280.799,371.643,265.416,366,265.416,366h-19.229c0,0-24.996-13.164-29.803-15.986s-31.727-20.688-31.727-20.688
		s-9.614-14.106-22.113-15.986c-12.499-1.88-32.688,6.582-32.688,6.582s-8.172,5.172,0,23.979c0,0,36.534,58.773,36.534,68.177
		c0,0,24.996,33.383,14.901,49.839l-9.614,27.562c0,0-30.339-4.995-45.453,2.528c0,0-12.711,0.47-5.502,4.702h34.13
		c0,0,0,15.986-18.267,21.158c-9.134,2.587-22.233,4.819-33.048,6.406c-10.816,1.587-19.348,2.528-19.348,2.528
		s0.48,15.517,25.478,21.158c24.997,5.641,88.931-11.754,88.931-11.754s30.286-14.576,40.38,16.927c0,0,11.537,18.807,34.13,19.278
		l-14.901,42.317h-27.4c0,0-11.537-11.754-36.053-7.052c-24.516,4.702-51.917-0.941-51.917-0.941s-21.151-3.761-30.286-21.158
		c0,0-8.172-10.815-30.766-6.113c0,0-5.769-4.702-12.499-0.941l-27.4,9.874l26.439-0.941c0,0-10.094,2.822-15.382,10.815
		l-1.443,5.643c0,0-14.421,2.351-20.671,22.568c0,0,15.864-18.807,22.113-13.637c0,0,7.21,0.47,11.537-5.172l18.745-15.047
		l6.25,15.517l-24.996-0.47c0,0-9.134,9.874-10.576,19.748c0,0-10.576,4.232-12.499,18.807c0,0-0.962,5.172,2.884,10.815
		c0,0,0.48-17.866,9.614-21.158c0,0,9.134,2.35,13.46-2.822c0,0,0.962-14.576,10.576-15.986c0,0,9.614-1.88,12.017,5.643
		c0,0,15.381,8.462,36.534,7.993c0,0,24.516,11.754,29.803,1.41c0,0,16.824,22.568,45.187,22.099c0,0,13.941,10.815,52.879,8.934
		c0,0,54.801,8.463,55.281-37.144l12.017-30.562c0,0,5.287,9.404,29.323,6.582c0,0,20.189,19.747,43.264,29.151
		c0,0-6.73,19.747,6.73,27.271c0,0,59.609,34.794,62.493,46.078c0,0,14.421,31.033-27.881,69.588l-42.303,45.137
		c0,0-10.094-15.517-29.803-11.754c0,0-11.537-1.41-31.727,11.754c0,0-11.057,12.695-0.962,6.113
		c10.094-6.582,26.92-8.463,26.92-8.463s18.267-2.796,20.671,10.356c0,0-17.306,21.145-45.187,23.027c0,0-5.769,5.172-38.457,10.345
		c0,0-1.923-4.232-12.979-3.761c0,0-9.134-1.88-18.749,11.284c0,0,19.229-4.702,20.189,1.88c0,0,12.499,3.292-1.443,8.935
		c0,0-9.614,1.41-12.499,12.225c0,0,13.941-10.815,17.306,0c0,0,4.327,5.172,13.941,4.702c0,0,15.864-13.637,56.724-10.815
		s24.036,11.284,64.416,4.702c0,0,36.534-38.555,56.724-100.149c0,0,13.46-17.866,11.057,23.509c0,0,4.807,6.113,12.979-32.913
		c0,0,26.92-72.879,5.287-84.163c0,0-43.744-37.144-33.65-53.132l85.084-20.688c0,0,26.679-7.052,31.005,0
		c4.327,7.052,7.21,57.833,7.21,57.833s2.884,14.81,17.306,22.568c14.421,7.758,25.958,47.959,25.958,47.959
		s-13.699,14.81-10.816,25.39c2.884,10.579,12.979,19.043,0.721,36.675c0,0-5.769,10.579-16.584,11.991c0,0-8.653,0-14.421,21.865
		l12.979-11.991c0,0,3.605,5.643,12.979,2.822l11.537,4.936l-4.324,26.093c0,0-2.884,7.052,7.21,9.874l5.769,17.662l10.817-16.251
		c0,0,11.537,0.705,13.699-9.169s-4.327-31.033-4.327-31.033s2.884-19.043,15.142-6.348l8.653,22.568c0,0,1.443,11.284,13.699,9.169
		l12.259,14.81l4.327-16.927c0,0,12.979-4.936,5.769-13.4c0,0-40.38-88.161-46.869-146.697c0,0,7.21-51.485,1.443-63.475
		c0,0,5.769-29.622-23.795-45.843l50.234-44.903c0,0,53.138-65.171,52.879-88.395c-1.443-129.065,17.306-194.658,17.306-194.658
		s-8.648-21.322-9.134-45.608c-0.115-5.814-6.655-21.13-4.567-25.625c1.443-3.104-6.339-21.678,5.048-33.149
		C784.813,144.296,822.076,133.725,822.076,133.725z"/>
	<linearGradient id="SVGID_2_" gradientUnits="userSpaceOnUse" x1="251.8155" y1="587.9241" x2="251.8155" y2="567.7933">
		<stop  offset="0.0398" style="stop-color:#D4145A"/>
		<stop  offset="0.1277" style="stop-color:#CB175D"/>
		<stop  offset="0.2741" style="stop-color:#B12064"/>
		<stop  offset="0.4608" style="stop-color:#882E70"/>
		<stop  offset="0.6805" style="stop-color:#4E4181"/>
		<stop  offset="0.9256" style="stop-color:#055995"/>
		<stop  offset="0.9425" style="stop-color:#005B97"/>
	</linearGradient>
	<path class="st1" d="M255.304,567.793c0,0-13.443,11.197-15.608,20.131c0,0,16.799-17.973,24.238-16.783"/>
	<linearGradient id="SVGID_3_" gradientUnits="userSpaceOnUse" x1="256.7984" y1="613.7838" x2="256.7984" y2="581.7594">
		<stop  offset="0.0398" style="stop-color:#D4145A"/>
		<stop  offset="0.1277" style="stop-color:#CB175D"/>
		<stop  offset="0.2741" style="stop-color:#B12064"/>
		<stop  offset="0.4608" style="stop-color:#882E70"/>
		<stop  offset="0.6805" style="stop-color:#4E4181"/>
		<stop  offset="0.9256" style="stop-color:#055995"/>
		<stop  offset="0.9425" style="stop-color:#005B97"/>
	</linearGradient>
	<path class="st2" d="M269.813,581.759c0,0-9.206,0.465-11.548,7.34c0,0-0.631,2.028,0,3.878c0,0-11.957,9.638-14.482,20.806
		c0,0,13.219-19.16,17.546-18.338c0,0,3.919-0.727,2.846,2.325"/>
	<linearGradient id="SVGID_4_" gradientUnits="userSpaceOnUse" x1="130.0761" y1="348.1292" x2="130.0761" y2="345.243">
		<stop  offset="0.0398" style="stop-color:#D4145A"/>
		<stop  offset="0.1277" style="stop-color:#CB175D"/>
		<stop  offset="0.2741" style="stop-color:#B12064"/>
		<stop  offset="0.4608" style="stop-color:#882E70"/>
		<stop  offset="0.6805" style="stop-color:#4E4181"/>
		<stop  offset="0.9256" style="stop-color:#055995"/>
		<stop  offset="0.9425" style="stop-color:#005B97"/>
	</linearGradient>
	<polyline class="st3" points="130.687,345.243 127.692,348.129 132.46,348.129 	"/>
	<linearGradient id="SVGID_5_" gradientUnits="userSpaceOnUse" x1="138.7596" y1="373.2844" x2="138.7596" y2="351.2652">
		<stop  offset="0.0398" style="stop-color:#D4145A"/>
		<stop  offset="0.1277" style="stop-color:#CB175D"/>
		<stop  offset="0.2741" style="stop-color:#B12064"/>
		<stop  offset="0.4608" style="stop-color:#882E70"/>
		<stop  offset="0.6805" style="stop-color:#4E4181"/>
		<stop  offset="0.9256" style="stop-color:#055995"/>
		<stop  offset="0.9425" style="stop-color:#005B97"/>
	</linearGradient>
	<polygon class="st4" points="138.877,358.733 136.344,360.354 140.413,361.306 145.312,369.616 140.829,373.284 147.443,373.284 
		134.373,351.265 130.076,354.947 	"/>
	<linearGradient id="SVGID_6_" gradientUnits="userSpaceOnUse" x1="151.4251" y1="396.1487" x2="151.4251" y2="377.13">
		<stop  offset="0.0398" style="stop-color:#D4145A"/>
		<stop  offset="0.1277" style="stop-color:#CB175D"/>
		<stop  offset="0.2741" style="stop-color:#B12064"/>
		<stop  offset="0.4608" style="stop-color:#882E70"/>
		<stop  offset="0.6805" style="stop-color:#4E4181"/>
		<stop  offset="0.9256" style="stop-color:#055995"/>
		<stop  offset="0.9425" style="stop-color:#005B97"/>
	</linearGradient>
	<polyline class="st5" points="149.651,377.13 142.834,379.397 151.937,381.166 154.721,386.175 147.443,389.036 156.28,389.036 
		158.365,392.951 155.333,392.951 160.016,396.149 	"/>
	<linearGradient id="SVGID_7_" gradientUnits="userSpaceOnUse" x1="139.1589" y1="366.5849" x2="139.1589" y2="364.1122">
		<stop  offset="0.0398" style="stop-color:#D4145A"/>
		<stop  offset="0.1277" style="stop-color:#CB175D"/>
		<stop  offset="0.2741" style="stop-color:#B12064"/>
		<stop  offset="0.4608" style="stop-color:#882E70"/>
		<stop  offset="0.6805" style="stop-color:#4E4181"/>
		<stop  offset="0.9256" style="stop-color:#055995"/>
		<stop  offset="0.9425" style="stop-color:#005B97"/>
	</linearGradient>
	<polyline class="st6" points="141.999,364.112 134.782,366.585 143.536,366.585 	"/>
	<linearGradient id="SVGID_8_" gradientUnits="userSpaceOnUse" x1="96.6213" y1="525.6534" x2="96.6213" y2="512.6953">
		<stop  offset="0.0398" style="stop-color:#D4145A"/>
		<stop  offset="0.1277" style="stop-color:#CB175D"/>
		<stop  offset="0.2741" style="stop-color:#B12064"/>
		<stop  offset="0.4608" style="stop-color:#882E70"/>
		<stop  offset="0.6805" style="stop-color:#4E4181"/>
		<stop  offset="0.9256" style="stop-color:#055995"/>
		<stop  offset="0.9425" style="stop-color:#005B97"/>
	</linearGradient>
	<polyline class="st7" points="93.549,525.653 95.724,512.695 99.694,524.823 	"/>
	<linearGradient id="SVGID_9_" gradientUnits="userSpaceOnUse" x1="104.1977" y1="524.2736" x2="104.1977" y2="516.9261">
		<stop  offset="0.0398" style="stop-color:#D4145A"/>
		<stop  offset="0.1277" style="stop-color:#CB175D"/>
		<stop  offset="0.2741" style="stop-color:#B12064"/>
		<stop  offset="0.4608" style="stop-color:#882E70"/>
		<stop  offset="0.6805" style="stop-color:#4E4181"/>
		<stop  offset="0.9256" style="stop-color:#055995"/>
		<stop  offset="0.9425" style="stop-color:#005B97"/>
	</linearGradient>
	<path class="st8" d="M104.859,516.926l-1.322,7.347L104.859,516.926z"/>
	<linearGradient id="SVGID_10_" gradientUnits="userSpaceOnUse" x1="113.4655" y1="523.0443" x2="113.4655" y2="514.6949">
		<stop  offset="0.0398" style="stop-color:#D4145A"/>
		<stop  offset="0.1277" style="stop-color:#CB175D"/>
		<stop  offset="0.2741" style="stop-color:#B12064"/>
		<stop  offset="0.4608" style="stop-color:#882E70"/>
		<stop  offset="0.6805" style="stop-color:#4E4181"/>
		<stop  offset="0.9256" style="stop-color:#055995"/>
		<stop  offset="0.9425" style="stop-color:#005B97"/>
	</linearGradient>
	<polyline class="st9" points="104.859,516.926 111.115,523.044 117.898,521.951 113.51,514.695 122.072,521.177 	"/>
</g>
<ellipse class="st10" cx="500" cy="500" rx="494.65" ry="483.821"/>
</svg>
