<?xml version="1.0" encoding="utf-8"?>
<!-- Generator: Adobe Illustrator 25.2.0, SVG Export Plug-In . SVG Version: 6.00 Build 0)  -->
<svg version="1.1" id="Слой_1" xmlns="http://www.w3.org/2000/svg" xmlns:xlink="http://www.w3.org/1999/xlink" x="0px" y="0px"
	 viewBox="0 0 1000 1000" style="enable-background:new 0 0 1000 1000;" xml:space="preserve">
<style type="text/css">
	.st0{fill:url(#SVGID_1_);}
	.st1{fill:url(#SVGID_2_);}
	.st2{fill:url(#SVGID_3_);}
	.st3{fill:url(#SVGID_4_);}
	.st4{fill:url(#SVGID_5_);}
	.st5{fill:url(#SVGID_6_);}
	.st6{fill:url(#SVGID_7_);}
	.st7{fill:url(#SVGID_8_);}
	.st8{fill:url(#SVGID_9_);}
	.st9{fill:url(#SVGID_10_);}
	.st10{fill:url(#SVGID_11_);}
	.st11{fill:url(#SVGID_12_);}
	.st12{fill:url(#SVGID_13_);}
	.st13{fill:url(#SVGID_14_);}
	.st14{fill:url(#SVGID_15_);}
	.st15{fill:url(#SVGID_16_);}
	.st16{fill:url(#SVGID_17_);}
	.st17{fill:url(#SVGID_18_);}
	.st18{fill:url(#SVGID_19_);}
	.st19{fill:url(#SVGID_20_);}
	.st20{fill:url(#SVGID_21_);}
	.st21{fill:url(#SVGID_22_);}
	.st22{fill:url(#SVGID_23_);}
	.st23{fill:url(#SVGID_24_);}
	.st24{fill:url(#SVGID_25_);}
	.st25{fill:url(#SVGID_26_);}
	.st26{fill:url(#SVGID_27_);}
	.st27{fill:url(#SVGID_28_);}
	.st28{fill:url(#SVGID_29_);}
	.st29{fill:url(#SVGID_30_);}
	.st30{fill:url(#SVGID_31_);}
	.st31{fill:url(#SVGID_32_);}
	.st32{fill:url(#SVGID_33_);}
	.st33{fill:url(#SVGID_34_);}
	.st34{fill:url(#SVGID_35_);}
	.st35{fill:url(#SVGID_36_);}
	.st36{fill:url(#SVGID_37_);}
	.st37{fill:url(#SVGID_38_);}
</style>
<g>
	<g>
		
			<linearGradient id="SVGID_1_" gradientUnits="userSpaceOnUse" x1="574.679" y1="987.7516" x2="574.679" y2="170.037" gradientTransform="matrix(-1 0 0 1 1074.679 0)">
			<stop  offset="0.1101" style="stop-color:#0A0200"/>
			<stop  offset="1" style="stop-color:#444444"/>
		</linearGradient>
		<path class="st0" d="M254.643,987.752c69.678-1.481,105.258-60.782,105.258-60.782c31.132-99.329,124.531-53.372,124.531-53.372
			s197.171,54.848,274.265,37.061c77.093-17.787,78.574-66.711,78.574-66.711s-26.313-2.967-59.671-7.971
			c-33.353-5.003-73.751-12.043-101.92-20.199c-56.334-16.306-56.334-66.711-56.334-66.711h105.258
			c22.235-13.344-16.967-14.825-16.967-14.825c-46.612-23.722-140.177-7.971-140.177-7.971l-29.65-86.905
			c-31.132-51.886,45.957-157.144,45.957-157.144c0-29.65,112.673-214.964,112.673-214.964c25.202-59.301,0-75.607,0-75.607
			s-62.263-26.683-100.81-20.754s-68.197,50.405-68.197,50.405s-83.022,56.334-97.848,65.23
			c-14.825,8.896-91.914,50.405-91.914,50.405H278.37c0,0-47.443,17.792-53.372,65.23c-5.929,47.438-38.547,171.969-38.547,171.969
			s23.721,59.301,23.721,136.389c0,77.093-47.443,139.356-47.443,139.356"/>
		
			<linearGradient id="SVGID_2_" gradientUnits="userSpaceOnUse" x1="378.9185" y1="280.5917" x2="378.9185" y2="271.4907" gradientTransform="matrix(-1 0 0 1 1074.679 0)">
			<stop  offset="0.1101" style="stop-color:#0A0200"/>
			<stop  offset="1" style="stop-color:#444444"/>
		</linearGradient>
		<polyline class="st1" points="688.408,280.592 703.113,280.592 693.872,271.491 		"/>
		
			<linearGradient id="SVGID_3_" gradientUnits="userSpaceOnUse" x1="405.6995" y1="359.9067" x2="405.6995" y2="290.4787" gradientTransform="matrix(-1 0 0 1 1074.679 0)">
			<stop  offset="0.1101" style="stop-color:#0A0200"/>
			<stop  offset="1" style="stop-color:#444444"/>
		</linearGradient>
		<polygon class="st2" points="695.763,302.087 682.509,290.479 642.196,359.907 662.6,359.907 648.77,348.339 663.881,322.136 
			676.425,319.139 668.619,314.025 		"/>
		
			<linearGradient id="SVGID_4_" gradientUnits="userSpaceOnUse" x1="435.4074" y1="431.9967" x2="435.4074" y2="359.9067" gradientTransform="matrix(-1 0 0 1 1074.679 0)">
			<stop  offset="0.1101" style="stop-color:#0A0200"/>
			<stop  offset="1" style="stop-color:#444444"/>
		</linearGradient>
		<polyline class="st3" points="603.419,431.997 617.869,421.915 608.518,421.915 614.947,409.572 642.196,409.572 619.755,400.55 
			628.341,384.754 656.411,379.181 635.391,372.031 675.124,372.031 642.196,359.907 		"/>
		
			<linearGradient id="SVGID_5_" gradientUnits="userSpaceOnUse" x1="406.9305" y1="338.7827" x2="406.9305" y2="330.9867" gradientTransform="matrix(-1 0 0 1 1074.679 0)">
			<stop  offset="0.1101" style="stop-color:#0A0200"/>
			<stop  offset="1" style="stop-color:#444444"/>
		</linearGradient>
		<polyline class="st4" points="654.249,338.783 681.248,338.783 658.992,330.987 		"/>
		
			<linearGradient id="SVGID_6_" gradientUnits="userSpaceOnUse" x1="275.7469" y1="840.3287" x2="275.7469" y2="799.4707" gradientTransform="matrix(-1 0 0 1 1074.679 0)">
			<stop  offset="0.1101" style="stop-color:#0A0200"/>
			<stop  offset="1" style="stop-color:#444444"/>
		</linearGradient>
		<polyline class="st5" points="789.458,837.713 801.701,799.471 808.406,840.329 		"/>
		
			<linearGradient id="SVGID_7_" gradientUnits="userSpaceOnUse" x1="327.693" y1="832.1037" x2="327.693" y2="805.7747" gradientTransform="matrix(-1 0 0 1 1074.679 0)">
			<stop  offset="0.1101" style="stop-color:#0A0200"/>
			<stop  offset="1" style="stop-color:#444444"/>
		</linearGradient>
		<polyline class="st6" points="720.44,826.215 746.848,805.775 733.314,828.657 754.238,832.104 773.532,812.81 		"/>
	</g>
</g>
<linearGradient id="SVGID_8_" gradientUnits="userSpaceOnUse" x1="286.2141" y1="385.0638" x2="349.1481" y2="447.9973">
	<stop  offset="0" style="stop-color:#FFFFFF"/>
	<stop  offset="1" style="stop-color:#000000"/>
</linearGradient>
<path class="st7" d="M362.182,416.531c0,24.577-19.924,44.501-44.501,44.501c-8.206,0-15.891-2.222-22.491-6.094
	c-13.169-7.73-22.01-22.035-22.01-38.407c0-24.577,19.924-44.501,44.501-44.501C342.258,372.031,362.182,391.954,362.182,416.531z"
	/>
<linearGradient id="SVGID_9_" gradientUnits="userSpaceOnUse" x1="358.4673" y1="334.6772" x2="358.4673" y2="303.1713" gradientTransform="matrix(0.8369 -0.5473 0.5473 0.8369 -180.2987 329.9396)">
	<stop  offset="0" style="stop-color:#000000;stop-opacity:0.6"/>
	<stop  offset="1" style="stop-color:#FFFFFF"/>
</linearGradient>
<path class="st8" d="M307.514,392.16c4.763,7.28,2.717,17.042-4.563,21.805s-17.042,2.717-21.805-4.563s-2.717-17.042,4.563-21.805
	C292.989,382.833,302.756,384.88,307.514,392.16z"/>
<linearGradient id="SVGID_10_" gradientUnits="userSpaceOnUse" x1="289.5045" y1="432.1992" x2="307.6775" y2="450.3722">
	<stop  offset="0" style="stop-color:#FFFFFF"/>
	<stop  offset="0.2905" style="stop-color:#731000"/>
</linearGradient>
<polygon class="st9" points="300.47,457.58 299.009,444.916 298.623,441.569 296.712,424.992 "/>
<linearGradient id="SVGID_11_" gradientUnits="userSpaceOnUse" x1="329.7432" y1="401.0412" x2="353.7079" y2="425.0051">
	<stop  offset="0" style="stop-color:#FFFFFF"/>
	<stop  offset="0.2905" style="stop-color:#731000"/>
</linearGradient>
<path class="st10" d="M362.182,416.531l-40.913-7.015L362.182,416.531z"/>
<linearGradient id="SVGID_12_" gradientUnits="userSpaceOnUse" x1="311.1469" y1="420.0088" x2="343.6791" y2="452.5416">
	<stop  offset="0" style="stop-color:#FFFFFF"/>
	<stop  offset="0.2905" style="stop-color:#731000"/>
</linearGradient>
<polyline class="st11" points="343.289,452.932 321.549,430.121 311.537,419.619 "/>
<linearGradient id="SVGID_13_" gradientUnits="userSpaceOnUse" x1="319.4465" y1="424.3734" x2="323.3715" y2="428.2981">
	<stop  offset="0" style="stop-color:#FFFFFF"/>
	<stop  offset="0.2905" style="stop-color:#731000"/>
</linearGradient>
<polygon class="st12" points="321.269,422.551 321.289,423.076 321.549,430.121 "/>
<linearGradient id="SVGID_14_" gradientUnits="userSpaceOnUse" x1="318.2847" y1="422.183" x2="320.9012" y2="424.7995">
	<stop  offset="0" style="stop-color:#FFFFFF"/>
	<stop  offset="0.2905" style="stop-color:#731000"/>
</linearGradient>
<path class="st13" d="M317.917,422.551l3.352,1.881L317.917,422.551z"/>
<linearGradient id="SVGID_15_" gradientUnits="userSpaceOnUse" x1="318.7257" y1="419.9598" x2="320.1793" y2="421.4135">
	<stop  offset="0" style="stop-color:#FFFFFF"/>
	<stop  offset="0.2905" style="stop-color:#731000"/>
</linearGradient>
<path class="st14" d="M320.268,418.418l-1.631,4.538L320.268,418.418z"/>
<linearGradient id="SVGID_16_" gradientUnits="userSpaceOnUse" x1="317.4943" y1="421.1064" x2="318.7297" y2="422.342">
	<stop  offset="0" style="stop-color:#FFFFFF"/>
	<stop  offset="0.2905" style="stop-color:#731000"/>
</linearGradient>
<path class="st15" d="M317.917,420.684l0.39,2.081L317.917,420.684z"/>
<linearGradient id="SVGID_17_" gradientUnits="userSpaceOnUse" x1="299.0433" y1="424.623" x2="299.7259" y2="425.3056">
	<stop  offset="0" style="stop-color:#FFFFFF"/>
	<stop  offset="0.2905" style="stop-color:#731000"/>
</linearGradient>
<path class="st16" d="M301.851,423.176l-4.938,3.572L301.851,423.176z"/>
<linearGradient id="SVGID_18_" gradientUnits="userSpaceOnUse" x1="299.8207" y1="419.8521" x2="302.5003" y2="422.5313">
	<stop  offset="0" style="stop-color:#FFFFFF"/>
	<stop  offset="0.2905" style="stop-color:#731000"/>
</linearGradient>
<path class="st17" d="M300.47,419.203l1.381,3.978L300.47,419.203z"/>
<linearGradient id="SVGID_19_" gradientUnits="userSpaceOnUse" x1="291.0555" y1="425.1942" x2="295.5185" y2="429.6572">
	<stop  offset="0" style="stop-color:#FFFFFF"/>
	<stop  offset="0.2905" style="stop-color:#731000"/>
</linearGradient>
<path class="st18" d="M297.072,428.104l-7.57-1.356L297.072,428.104z"/>
<linearGradient id="SVGID_20_" gradientUnits="userSpaceOnUse" x1="286.3815" y1="421.6632" x2="290.4865" y2="425.7682">
	<stop  offset="0" style="stop-color:#FFFFFF"/>
	<stop  offset="0.2905" style="stop-color:#731000"/>
</linearGradient>
<path class="st19" d="M287.361,420.684l2.146,6.064L287.361,420.684z"/>
<linearGradient id="SVGID_21_" gradientUnits="userSpaceOnUse" x1="318.65" y1="404.3057" x2="323.263" y2="408.9187">
	<stop  offset="0" style="stop-color:#FFFFFF"/>
	<stop  offset="0.2905" style="stop-color:#731000"/>
</linearGradient>
<path class="st20" d="M322.46,409.722l-3.007-6.219L322.46,409.722z"/>
<linearGradient id="SVGID_22_" gradientUnits="userSpaceOnUse" x1="315.9215" y1="403.0902" x2="317.8955" y2="405.0642">
	<stop  offset="0" style="stop-color:#FFFFFF"/>
	<stop  offset="0.2905" style="stop-color:#731000"/>
</linearGradient>
<path class="st21" d="M314.359,404.653l5.099-1.151L314.359,404.653z"/>
<linearGradient id="SVGID_23_" gradientUnits="userSpaceOnUse" x1="332.1282" y1="409.6979" x2="333.4643" y2="411.0339">
	<stop  offset="0" style="stop-color:#FFFFFF"/>
	<stop  offset="0.2905" style="stop-color:#731000"/>
</linearGradient>
<path class="st22" d="M332.617,409.206l0.355,2.317L332.617,409.206z"/>
<linearGradient id="SVGID_24_" gradientUnits="userSpaceOnUse" x1="330.6955" y1="408.5652" x2="331.9765" y2="409.8462">
	<stop  offset="0" style="stop-color:#FFFFFF"/>
	<stop  offset="0.2905" style="stop-color:#731000"/>
</linearGradient>
<path class="st23" d="M330.055,409.206h2.562H330.055z"/>
<linearGradient id="SVGID_25_" gradientUnits="userSpaceOnUse" x1="334.425" y1="412.2127" x2="335.0431" y2="412.8308">
	<stop  offset="0" style="stop-color:#FFFFFF"/>
	<stop  offset="0.2905" style="stop-color:#731000"/>
</linearGradient>
<path class="st24" d="M333.612,413.024l2.242-1.006L333.612,413.024z"/>
<linearGradient id="SVGID_26_" gradientUnits="userSpaceOnUse" x1="323.5401" y1="379.4417" x2="332.0429" y2="387.9447">
	<stop  offset="0" style="stop-color:#FFFFFF"/>
	<stop  offset="0.2905" style="stop-color:#731000"/>
</linearGradient>
<path class="st25" d="M341.223,378.765l-26.863,9.857L341.223,378.765z"/>
<linearGradient id="SVGID_27_" gradientUnits="userSpaceOnUse" x1="319.1613" y1="388.3735" x2="320.4997" y2="389.7119">
	<stop  offset="0" style="stop-color:#FFFFFF"/>
	<stop  offset="0.2905" style="stop-color:#731000"/>
</linearGradient>
<path class="st26" d="M318.112,392.1l3.437-6.114L318.112,392.1z"/>
<linearGradient id="SVGID_28_" gradientUnits="userSpaceOnUse" x1="313.2861" y1="391.8767" x2="315.8079" y2="394.3987">
	<stop  offset="0" style="stop-color:#FFFFFF"/>
	<stop  offset="0.2905" style="stop-color:#731000"/>
</linearGradient>
<path class="st27" d="M310.982,394.181l7.13-2.086L310.982,394.181z"/>
<linearGradient id="SVGID_29_" gradientUnits="userSpaceOnUse" x1="325.1349" y1="380.9978" x2="327.8091" y2="383.6725">
	<stop  offset="0" style="stop-color:#FFFFFF"/>
	<stop  offset="0.2905" style="stop-color:#731000"/>
</linearGradient>
<path class="st28" d="M327.788,383.694l-2.632-2.717L327.788,383.694z"/>
<linearGradient id="SVGID_30_" gradientUnits="userSpaceOnUse" x1="321.8289" y1="380.7767" x2="323.5951" y2="382.5427">
	<stop  offset="0" style="stop-color:#FFFFFF"/>
	<stop  offset="0.2905" style="stop-color:#731000"/>
</linearGradient>
<path class="st29" d="M320.268,382.338l4.888-1.356L320.268,382.338z"/>
<linearGradient id="SVGID_31_" gradientUnits="userSpaceOnUse" x1="320.1087" y1="433.8467" x2="325.3603" y2="439.0977">
	<stop  offset="0" style="stop-color:#FFFFFF"/>
	<stop  offset="0.2905" style="stop-color:#731000"/>
</linearGradient>
<path class="st30" d="M317.681,436.275l10.107,0.395L317.681,436.275z"/>
<linearGradient id="SVGID_32_" gradientUnits="userSpaceOnUse" x1="318.73" y1="432.4297" x2="321.987" y2="435.6867">
	<stop  offset="0" style="stop-color:#FFFFFF"/>
	<stop  offset="0.2905" style="stop-color:#731000"/>
</linearGradient>
<path class="st31" d="M319.453,431.707l1.811,4.703L319.453,431.707z"/>
<linearGradient id="SVGID_33_" gradientUnits="userSpaceOnUse" x1="314.3521" y1="430.5627" x2="317.4739" y2="433.6847">
	<stop  offset="0" style="stop-color:#FFFFFF"/>
	<stop  offset="0.2905" style="stop-color:#731000"/>
</linearGradient>
<path class="st32" d="M312.373,432.542l7.08-0.836L312.373,432.542z"/>
<linearGradient id="SVGID_34_" gradientUnits="userSpaceOnUse" x1="310.4656" y1="424.2331" x2="317.4224" y2="431.1903">
	<stop  offset="0" style="stop-color:#FFFFFF"/>
	<stop  offset="0.2905" style="stop-color:#731000"/>
</linearGradient>
<path class="st33" d="M316.906,431.707l-5.924-7.99L316.906,431.707z"/>
<linearGradient id="SVGID_35_" gradientUnits="userSpaceOnUse" x1="594.468" y1="445.6387" x2="625.645" y2="445.6387">
	<stop  offset="0" style="stop-color:#000000"/>
	<stop  offset="1" style="stop-color:#FFFFFF"/>
</linearGradient>
<polygon class="st34" points="599.211,440.573 625.645,446.582 594.468,450.705 "/>
<linearGradient id="SVGID_36_" gradientUnits="userSpaceOnUse" x1="583.735" y1="470.1732" x2="623.108" y2="470.1732">
	<stop  offset="0" style="stop-color:#000000"/>
	<stop  offset="1" style="stop-color:#FFFFFF"/>
</linearGradient>
<polygon class="st35" points="589.674,461.032 623.108,477.158 583.735,479.315 "/>
<linearGradient id="SVGID_37_" gradientUnits="userSpaceOnUse" x1="822.07" y1="843.0707" x2="822.07" y2="799.4707">
	<stop  offset="0.1101" style="stop-color:#0A0200"/>
	<stop  offset="1" style="stop-color:#444444"/>
</linearGradient>
<polygon class="st36" points="814.27,841.105 821.335,799.471 829.87,843.071 "/>
<polygon points="769.794,834.786 786.125,803.494 784.204,836.952 "/>
<linearGradient id="SVGID_38_" gradientUnits="userSpaceOnUse" x1="697.839" y1="257.8317" x2="722.101" y2="257.8317">
	<stop  offset="0.3517" style="stop-color:#000000"/>
	<stop  offset="1" style="stop-color:#FFFFFF"/>
</linearGradient>
<polygon class="st37" points="703.113,248.931 722.101,266.733 697.839,263.871 "/>
</svg>
